# xmcd CD database file
#
# Track frame offsets:
#	150
#	27936
#	48801
#	63948
#	81274
#	103037
#	128101
#	148218
#	172791
#	190317
#	209943
#	234797
#	257496
#	272343
#
# Disc length: 3879 seconds
#
# Revision: 0
# Processed by: cddbd v1.5.2PL0 Copyright (c) Steve Scherf et al.
# Submitted via: CDex 1.51
#
DISCID=be0f250e
DTITLE=Liane Carroll - Slow Down
DYEAR=2007
DGENRE=Jazz
TTITLE0=Memphis In June
TTITLE1=All The Way
TTITLE2=Lazy Susan
TTITLE3=You Can't Slow My Heart Down
TTITLE4=Let Me Be What you Be To Me
TTITLE5=Catch The Wind
TTITLE6=In My Solitude
TTITLE7=Willow Weep For Me
TTITLE8=The World Stopped turning
TTITLE9=All of Me
TTITLE10=One Fine Day
TTITLE11=If I loved You
TTITLE12=Lazy Afternoon
TTITLE13=Take It With Me
EXTD=YEAR: 2007
EXTT0=
EXTT1=
EXTT2=
EXTT3=
EXTT4=
EXTT5=
EXTT6=
EXTT7=
EXTT8=
EXTT9=
EXTT10=
EXTT11=
EXTT12=
EXTT13=
PLAYORDER=
